<svg width="10" height="13" viewBox="0 0 10 13" fill="none" xmlns="http://www.w3.org/2000/svg">
<path d="M4.6875 0.25C2.26875 0.25 0.3125 2.20625 0.3125 4.625C0.3125 7.90625 4.6875 12.75 4.6875 12.75C4.6875 12.75 9.0625 7.90625 9.0625 4.625C9.0625 2.20625 7.10625 0.25 4.6875 0.25ZM4.6875 6.1875C4.2731 6.1875 3.87567 6.02288 3.58265 5.72986C3.28962 5.43683 3.125 5.0394 3.125 4.625C3.125 4.2106 3.28962 3.81317 3.58265 3.52015C3.87567 3.22712 4.2731 3.0625 4.6875 3.0625C5.1019 3.0625 5.49933 3.22712 5.79236 3.52015C6.08538 3.81317 6.25 4.2106 6.25 4.625C6.25 5.0394 6.08538 5.43683 5.79236 5.72986C5.49933 6.02288 5.1019 6.1875 4.6875 6.1875Z" fill="#F7F9FC"/>
</svg>
