<svg width="50" height="50" viewBox="0 0 50 50" fill="none" xmlns="http://www.w3.org/2000/svg">
<path d="M50 25C50 38.8071 38.8071 50 25 50C11.1929 50 1.29732e-05 38.8071 1.29732e-05 25C1.29732e-05 11.1929 11.1929 0 25 0C38.8071 0 50 11.1929 50 25Z" fill="#639BDB"/>
<path d="M26.1748 38.7543C25.94 38.7553 25.708 38.6923 25.4959 38.5699C25.2837 38.4476 25.0968 38.269 24.9489 38.0473L17.3575 26.5822C17.1264 26.2403 17 25.8114 17 25.3688C17 24.9262 17.1264 24.4973 17.3575 24.1554L25.2161 12.6903C25.4829 12.3001 25.8662 12.0547 26.2818 12.0081C26.6974 11.9615 27.1112 12.1175 27.4322 12.4419C27.7532 12.7662 27.955 13.2323 27.9933 13.7376C28.0317 14.2429 27.9033 14.746 27.6365 15.1362L20.611 25.3784L27.4008 35.6205C27.593 35.901 27.7151 36.2425 27.7526 36.6047C27.7901 36.9669 27.7415 37.3346 27.6126 37.6643C27.4836 37.994 27.2797 38.2718 27.0249 38.465C26.7701 38.6582 26.4751 38.7586 26.1748 38.7543Z" fill="#F7F9FC"/>
</svg>
