<svg width="40" height="40" viewBox="0 0 40 40" fill="none" xmlns="http://www.w3.org/2000/svg">
<path d="M40 20C40 31.0457 31.0457 40 20 40C8.95432 40 1.03786e-05 31.0457 1.03786e-05 20C1.03786e-05 8.95431 8.95432 0 20 0C31.0457 0 40 8.95431 40 20Z" fill="#73B2D8"/>
<path d="M23.3399 29.431C23.152 29.4317 22.9664 29.3881 22.7967 29.3033C22.627 29.2186 22.4775 29.0949 22.3591 28.9414L16.286 21.0014C16.1011 20.7647 16 20.4676 16 20.1611C16 19.8546 16.1011 19.5576 16.286 19.3208L22.5729 11.3809C22.7863 11.1106 23.093 10.9407 23.4255 10.9084C23.758 10.8762 24.089 10.9842 24.3458 11.2089C24.6025 11.4335 24.764 11.7562 24.7947 12.1062C24.8253 12.4561 24.7227 12.8045 24.5092 13.0747L18.8888 20.1678L24.3206 27.2608C24.4744 27.455 24.572 27.6915 24.6021 27.9424C24.6321 28.1932 24.5932 28.4478 24.4901 28.6762C24.3869 28.9045 24.2237 29.0969 24.0199 29.2307C23.8161 29.3644 23.5801 29.434 23.3399 29.431Z" fill="#F7F9FC"/>
</svg>
