<svg width="40" height="41" viewBox="0 0 40 41" fill="none" xmlns="http://www.w3.org/2000/svg">
<path d="M40 20.23C40 31.2757 31.0457 40.23 20 40.23C8.95432 40.23 1.03786e-05 31.2757 1.03786e-05 20.23C1.03786e-05 9.18429 8.95432 0.22998 20 0.22998C31.0457 0.22998 40 9.18429 40 20.23Z" fill="#639BDB"/>
<path d="M17.2488 29.0082C16.9575 29.0088 16.6752 28.9044 16.451 28.7132C16.3247 28.6056 16.2204 28.4733 16.1439 28.3241C16.0674 28.1749 16.0203 28.0117 16.0053 27.8437C15.9902 27.6757 16.0075 27.5064 16.0562 27.3453C16.1049 27.1842 16.1839 27.0346 16.2889 26.905L21.8736 20.0311L16.4884 13.1445C16.3848 13.0133 16.3075 12.8624 16.2608 12.7003C16.2142 12.5383 16.1991 12.3684 16.2165 12.2004C16.2338 12.0323 16.2833 11.8695 16.3621 11.7212C16.4408 11.5729 16.5473 11.4421 16.6754 11.3362C16.8043 11.2195 16.9554 11.1314 17.119 11.0776C17.2826 11.0237 17.4553 11.0053 17.6262 11.0233C17.7971 11.0414 17.9625 11.0956 18.1121 11.1825C18.2617 11.2695 18.3922 11.3873 18.4954 11.5286L24.5164 19.2232C24.6998 19.4527 24.8 19.7405 24.8 20.0376C24.8 20.3346 24.6998 20.6224 24.5164 20.8519L18.2835 28.5465C18.1584 28.7017 17.9995 28.8244 17.8198 28.9046C17.64 28.9848 17.4444 29.0203 17.2488 29.0082Z" fill="#F7F9FC"/>
</svg>
