<svg width="50" height="50" viewBox="0 0 50 50" fill="none" xmlns="http://www.w3.org/2000/svg">
<path d="M50 25C50 38.8071 38.8071 50 25 50C11.1929 50 1.29732e-05 38.8071 1.29732e-05 25C1.29732e-05 11.1929 11.1929 0 25 0C38.8071 0 50 11.1929 50 25Z" fill="#639BDB"/>
<path d="M22.561 38.751C22.1969 38.7519 21.8441 38.5967 21.5637 38.3124C21.4059 38.1524 21.2755 37.9558 21.1799 37.7339C21.0843 37.5121 21.0254 37.2693 21.0066 37.0196C20.9878 36.7698 21.0094 36.518 21.0702 36.2785C21.1311 36.039 21.2299 35.8165 21.3611 35.6238L28.3421 25.4034L21.6105 15.1638C21.481 14.9688 21.3844 14.7444 21.326 14.5035C21.2677 14.2626 21.2489 14.0099 21.2706 13.7601C21.2923 13.5102 21.3542 13.2681 21.4526 13.0476C21.551 12.8271 21.6841 12.6326 21.8442 12.4752C22.0054 12.3017 22.1942 12.1707 22.3988 12.0907C22.6033 12.0106 22.8192 11.9831 23.0328 12.01C23.2464 12.0368 23.4532 12.1174 23.6401 12.2467C23.8271 12.376 23.9902 12.5512 24.1192 12.7613L31.6455 24.2021C31.8747 24.5433 32 24.9712 32 25.4129C32 25.8546 31.8747 26.2825 31.6455 26.6237L23.8543 38.0645C23.698 38.2953 23.4994 38.4777 23.2747 38.597C23.05 38.7162 22.8055 38.769 22.561 38.751Z" fill="#F7F9FC"/>
</svg>
