<svg width="110" height="110" viewBox="0 0 110 110" fill="none" xmlns="http://www.w3.org/2000/svg">
<path d="M110 55C110 85.3757 85.3757 110 55 110C24.6243 110 0 85.3757 0 55C0 24.6243 24.6243 0 55 0C85.3757 0 110 24.6243 110 55Z" fill="#639BDB"/>
<g clip-path="url(#clip0_317_4)">
<path fill-rule="evenodd" clip-rule="evenodd" d="M57.16 68.0545C69.4495 65.0215 77.5 54.2665 77.5 41.5C77.5 35.5326 75.1295 29.8097 70.9099 25.5901C66.6903 21.3705 60.9674 19 55 19C49.0326 19 43.3097 21.3705 39.0901 25.5901C34.8705 29.8097 32.5 35.5326 32.5 41.5C32.5 54.2665 40.5505 65.0215 52.84 68.0545L51.742 70.246C51.6758 70.3784 51.6363 70.5225 51.6259 70.6701C51.6154 70.8177 51.6341 70.966 51.6809 71.1064C51.7754 71.3899 51.9787 71.6243 52.246 71.758C52.5133 71.8917 52.8228 71.9137 53.1064 71.8191C53.3899 71.7246 53.6243 71.5213 53.758 71.254L53.938 70.894C53.9785 71.659 54.046 72.3115 54.1675 72.919C54.4735 74.467 55.1035 75.718 56.1835 77.878L56.242 78.004C57.196 79.903 57.061 81.829 56.467 83.611C55.8595 85.42 54.82 86.9905 54.064 88.1245C53.8981 88.3727 53.8376 88.6767 53.8959 88.9696C53.9541 89.2624 54.1263 89.5201 54.3745 89.686C54.6227 89.8519 54.9267 89.9124 55.2196 89.8541C55.5124 89.7959 55.7701 89.6237 55.936 89.3755L55.954 89.344C56.701 88.228 57.8935 86.437 58.6 84.3265C59.32 82.171 59.554 79.597 58.258 76.996C57.097 74.6785 56.6155 73.702 56.3725 72.478C56.2904 72.0483 56.2348 71.614 56.206 71.1775L56.242 71.254C56.3757 71.5213 56.6101 71.7246 56.8936 71.8191C57.1772 71.9137 57.4867 71.8917 57.754 71.758C58.0213 71.6243 58.2246 71.3899 58.3191 71.1064C58.4137 70.8228 58.3917 70.5133 58.258 70.246L57.16 68.0545ZM38.584 34.102C39.8535 31.2905 41.8236 28.852 44.3055 27.0201C46.7875 25.1881 49.6982 24.0241 52.759 23.6395C53.983 23.4865 55 24.508 55 25.75C55 26.992 53.983 27.982 52.759 28.189C48.484 28.918 44.8885 31.699 42.9805 35.4655C42.7699 35.9122 42.4399 36.292 42.0269 36.5628C41.6139 36.8336 41.1341 36.9849 40.6405 37C39.0835 37 37.945 35.5195 38.584 34.102Z" fill="#F7F9FC"/>
</g>
<defs>
<clipPath id="clip0_317_4">
<rect width="72" height="72" fill="white" transform="translate(19 19)"/>
</clipPath>
</defs>
</svg>
