<svg width="110" height="110" viewBox="0 0 110 110" fill="none" xmlns="http://www.w3.org/2000/svg">
<path d="M110 55C110 85.3757 85.3757 110 55 110C24.6243 110 0 85.3757 0 55C0 24.6243 24.6243 0 55 0C85.3757 0 110 24.6243 110 55Z" fill="#639BDB"/>
<path d="M38 21.125C38 20.5614 37.7761 20.0209 37.3776 19.6224C36.9791 19.2239 36.4386 19 35.875 19C35.3114 19 34.7709 19.2239 34.3724 19.6224C33.9739 20.0209 33.75 20.5614 33.75 21.125V23.25H29.5C27.2457 23.25 25.0837 24.1455 23.4896 25.7396C21.8955 27.3337 21 29.4957 21 31.75V36H89V31.75C89 29.4957 88.1045 27.3337 86.5104 25.7396C84.9163 24.1455 82.7543 23.25 80.5 23.25H76.25V21.125C76.25 20.5614 76.0261 20.0209 75.6276 19.6224C75.2291 19.2239 74.6886 19 74.125 19C73.5614 19 73.0209 19.2239 72.6224 19.6224C72.2239 20.0209 72 20.5614 72 21.125V23.25H38V21.125ZM89 78.5V40.25H21V78.5C21 80.7543 21.8955 82.9163 23.4896 84.5104C25.0837 86.1045 27.2457 87 29.5 87H80.5C82.7543 87 84.9163 86.1045 86.5104 84.5104C88.1045 82.9163 89 80.7543 89 78.5ZM67.1295 56.6295L54.3795 69.3795C54.1821 69.5774 53.9476 69.7344 53.6894 69.8415C53.4313 69.9487 53.1545 70.0038 52.875 70.0038C52.5955 70.0038 52.3187 69.9487 52.0606 69.8415C51.8024 69.7344 51.5679 69.5774 51.3705 69.3795L44.9955 63.0045C44.5965 62.6055 44.3723 62.0643 44.3723 61.5C44.3723 60.9357 44.5965 60.3945 44.9955 59.9955C45.3945 59.5965 45.9357 59.3723 46.5 59.3723C47.0643 59.3723 47.6055 59.5965 48.0045 59.9955L52.875 64.8703L64.1205 53.6205C64.5195 53.2215 65.0607 52.9973 65.625 52.9973C66.1893 52.9973 66.7305 53.2215 67.1295 53.6205C67.5285 54.0195 67.7527 54.5607 67.7527 55.125C67.7527 55.6893 67.5285 56.2305 67.1295 56.6295Z" fill="#F7F9FC"/>
</svg>
