<svg width="110" height="110" viewBox="0 0 110 110" fill="none" xmlns="http://www.w3.org/2000/svg">
<path d="M110 55C110 85.3757 85.3757 110 55 110C24.6243 110 0 85.3757 0 55C0 24.6243 24.6243 0 55 0C85.3757 0 110 24.6243 110 55Z" fill="#639BDB"/>
<g clip-path="url(#clip0_317_5)">
<path d="M89.3111 43.75H80.8919L78.5519 37.9C76.1472 31.8855 70.4083 28 63.9297 28H46.0703C39.5931 28 33.8528 31.8855 31.4467 37.9L29.1067 43.75H20.6889C19.5906 43.75 18.7848 44.7822 19.052 45.8467L19.8958 49.2217C20.0828 49.9727 20.7578 50.5 21.5326 50.5H24.355C22.4664 52.1495 21.25 54.5472 21.25 57.25V64C21.25 66.2669 22.1162 68.313 23.5 69.8964V77.5C23.5 79.9848 25.5151 82 28 82H32.5C34.9848 82 37 79.9848 37 77.5V73H73V77.5C73 79.9848 75.0151 82 77.5 82H82C84.4848 82 86.5 79.9848 86.5 77.5V69.8964C87.8837 68.3144 88.75 66.2683 88.75 64V57.25C88.75 54.5472 87.5336 52.1495 85.6464 50.5H88.4687C89.2436 50.5 89.9186 49.9727 90.1056 49.2217L90.9494 45.8467C91.2151 44.7822 90.4093 43.75 89.3111 43.75ZM39.8026 41.2427C40.8278 38.6805 43.3098 37 46.0703 37H63.9297C66.6901 37 69.1722 38.6805 70.1973 41.2427L73 48.25H37L39.8026 41.2427ZM32.5 63.9719C29.8 63.9719 28 62.1775 28 59.4859C28 56.7944 29.8 55 32.5 55C35.2 55 39.25 59.0373 39.25 61.7289C39.25 64.4205 35.2 63.9719 32.5 63.9719ZM77.5 63.9719C74.8 63.9719 70.75 64.4205 70.75 61.7289C70.75 59.0373 74.8 55 77.5 55C80.2 55 82 56.7944 82 59.4859C82 62.1775 80.2 63.9719 77.5 63.9719Z" fill="#F7F9FC"/>
</g>
<defs>
<clipPath id="clip0_317_5">
<rect width="72" height="72" fill="white" transform="translate(19 19)"/>
</clipPath>
</defs>
</svg>
