<svg width="14" height="15" viewBox="0 0 14 15" fill="none" xmlns="http://www.w3.org/2000/svg">
<path d="M0 7.70956C0 6.46452 0.306 5.31102 0.912 4.25517C1.518 3.19932 2.34 2.36319 3.378 1.74677C4.416 1.13035 5.544 0.825195 6.762 0.825195C7.674 0.825195 8.55 1.00829 9.384 1.36838C10.218 1.72846 10.932 2.22282 11.538 2.83314C12.144 3.44345 12.624 4.17583 12.978 5.03027C13.332 5.88472 13.512 6.76967 13.512 7.70956C13.512 8.63724 13.332 9.5283 12.978 10.3766C12.624 11.225 12.138 11.9574 11.538 12.5677C10.938 13.178 10.218 13.6662 9.384 14.0263C8.55 14.3864 7.68 14.5695 6.762 14.5695C5.844 14.5695 4.962 14.3864 4.128 14.0263C3.294 13.6662 2.574 13.1719 1.968 12.5616C1.362 11.9513 0.888 11.2189 0.528 10.3766C0.168 9.5344 0 8.64334 0 7.70956ZM1.488 7.70956C1.488 9.15601 2.004 10.4133 3.042 11.4813C4.08 12.5372 5.316 13.062 6.762 13.062C7.71 13.062 8.592 12.824 9.396 12.3419C10.2 11.8597 10.848 11.2128 11.322 10.3888C11.796 9.56492 12.036 8.67386 12.036 7.70956C12.036 6.74526 11.796 5.8481 11.322 5.02417C10.848 4.20024 10.206 3.5472 9.396 3.06506C8.586 2.58291 7.71 2.34488 6.762 2.34488C5.814 2.34488 4.932 2.58291 4.128 3.06506C3.324 3.5472 2.676 4.20024 2.196 5.02417C1.716 5.8481 1.488 6.74526 1.488 7.70956ZM6.24 7.70956V3.64486C6.24 3.50448 6.288 3.38242 6.384 3.28477C6.48 3.18712 6.6 3.13829 6.738 3.13829C6.876 3.13829 6.996 3.18712 7.092 3.28477C7.188 3.38242 7.236 3.50448 7.236 3.64486V6.8246L8.904 5.86641C9.024 5.79317 9.15 5.77486 9.282 5.81148C9.414 5.8481 9.516 5.93354 9.582 6.06171C9.654 6.18377 9.666 6.31194 9.63 6.44621C9.594 6.58047 9.516 6.69033 9.396 6.75747L7.068 8.08185C6.9771 8.16883 6.85679 8.21691 6.732 8.21612C6.66658 8.21722 6.60162 8.20482 6.54105 8.17968C6.48047 8.15453 6.42553 8.11716 6.37955 8.06981C6.33357 8.02247 6.2975 7.96614 6.27351 7.90422C6.24953 7.8423 6.23813 7.77608 6.24 7.70956Z" fill="#F7F9FC"/>
</svg>
