<svg width="39" height="39" viewBox="0 0 39 39" fill="none" xmlns="http://www.w3.org/2000/svg">
<path d="M28.4431 0.576172H10.5569C4.73575 0.576172 0 5.18353 0 10.8469V28.2484C0 33.9115 4.73575 38.5188 10.5569 38.5188H28.4434C34.2643 38.5188 39 33.9115 39 28.2484V10.8469C39 5.18353 34.2643 0.576172 28.4431 0.576172ZM36.7137 28.2484C36.7137 32.685 33.0036 36.2945 28.4431 36.2945H10.5569C5.99645 36.2945 2.28635 32.685 2.28635 28.2484V10.8469C2.28635 6.41005 5.99645 2.80053 10.5569 2.80053H28.4434C33.0036 2.80053 36.7137 6.41005 36.7137 10.8469V28.2484Z" fill="white"/>
<path d="M19.5 9.17285C13.6199 9.17285 8.83624 13.8268 8.83624 19.5475C8.83624 25.2682 13.6199 29.9222 19.5 29.9222C25.3801 29.9222 30.1638 25.2682 30.1638 19.5475C30.1638 13.8268 25.3801 9.17285 19.5 9.17285ZM19.5 27.6978C14.8809 27.6978 11.1226 24.0417 11.1226 19.5475C11.1226 15.0536 14.8809 11.3972 19.5 11.3972C24.1194 11.3972 27.8774 15.0536 27.8774 19.5475C27.8774 24.0417 24.1194 27.6978 19.5 27.6978Z" fill="white"/>
<path d="M30.4188 5.48835C28.6811 5.48835 27.2677 6.86367 27.2677 8.55394C27.2677 10.2445 28.6811 11.6198 30.4188 11.6198C32.1564 11.6198 33.5701 10.2445 33.5701 8.55394C33.5701 6.86338 32.1564 5.48835 30.4188 5.48835ZM30.4188 9.39517C29.9421 9.39517 29.5541 9.01769 29.5541 8.55394C29.5541 8.0899 29.9421 7.71271 30.4188 7.71271C30.8957 7.71271 31.2837 8.0899 31.2837 8.55394C31.2837 9.01769 30.8957 9.39517 30.4188 9.39517Z" fill="white"/>
</svg>
