<svg width="172" height="32" viewBox="0 0 172 32" fill="none" xmlns="http://www.w3.org/2000/svg">
<path d="M38.9631 24H35.5881L41.733 6.54545H45.6364L51.7898 24H48.4148L43.7528 10.125H43.6165L38.9631 24ZM39.0739 17.1562H48.2784V19.696H39.0739V17.1562ZM59.7713 18.1364H62.6349L64.331 20.3352L65.5412 21.767L68.4474 25.5H65.3793L63.402 22.9943L62.5582 21.8011L59.7713 18.1364ZM68.8651 15.2727C68.8651 17.1534 68.5128 18.7642 67.8082 20.1051C67.1094 21.4403 66.1548 22.4631 64.9446 23.1733C63.7401 23.8835 62.3736 24.2386 60.8452 24.2386C59.3168 24.2386 57.9474 23.8835 56.7372 23.1733C55.5327 22.4574 54.5781 21.4318 53.8736 20.0966C53.1747 18.7557 52.8253 17.1477 52.8253 15.2727C52.8253 13.392 53.1747 11.7841 53.8736 10.4489C54.5781 9.10795 55.5327 8.08239 56.7372 7.37216C57.9474 6.66193 59.3168 6.30682 60.8452 6.30682C62.3736 6.30682 63.7401 6.66193 64.9446 7.37216C66.1548 8.08239 67.1094 9.10795 67.8082 10.4489C68.5128 11.7841 68.8651 13.392 68.8651 15.2727ZM65.6861 15.2727C65.6861 13.9489 65.4787 12.8324 65.0639 11.9233C64.6548 11.0085 64.0866 10.3182 63.3594 9.85227C62.6321 9.38068 61.794 9.14489 60.8452 9.14489C59.8963 9.14489 59.0582 9.38068 58.331 9.85227C57.6037 10.3182 57.0327 11.0085 56.6179 11.9233C56.2088 12.8324 56.0043 13.9489 56.0043 15.2727C56.0043 16.5966 56.2088 17.7159 56.6179 18.6307C57.0327 19.5398 57.6037 20.2301 58.331 20.7017C59.0582 21.1676 59.8963 21.4006 60.8452 21.4006C61.794 21.4006 62.6321 21.1676 63.3594 20.7017C64.0866 20.2301 64.6548 19.5398 65.0639 18.6307C65.4787 17.7159 65.6861 16.5966 65.6861 15.2727ZM82.8807 6.54545H86.0426V17.9489C86.0426 19.1989 85.7472 20.2983 85.1562 21.2472C84.571 22.196 83.7472 22.9375 82.6847 23.4716C81.6222 24 80.3807 24.2642 78.9602 24.2642C77.5341 24.2642 76.2898 24 75.2273 23.4716C74.1648 22.9375 73.3409 22.196 72.7557 21.2472C72.1705 20.2983 71.8778 19.1989 71.8778 17.9489V6.54545H75.0398V17.6847C75.0398 18.4119 75.1989 19.0597 75.517 19.6278C75.8409 20.196 76.2955 20.642 76.8807 20.9659C77.4659 21.2841 78.1591 21.4432 78.9602 21.4432C79.7614 21.4432 80.4545 21.2841 81.0398 20.9659C81.6307 20.642 82.0852 20.196 82.4034 19.6278C82.7216 19.0597 82.8807 18.4119 82.8807 17.6847V6.54545ZM91.7209 24H88.3459L94.4908 6.54545H98.3942L104.548 24H101.173L96.5107 10.125H96.3743L91.7209 24ZM91.8317 17.1562H101.036V19.696H91.8317V17.1562ZM106.847 24V6.54545H110.009V21.3494H117.696V24H106.847ZM123.338 24H119.963L126.108 6.54545H130.011L136.165 24H132.79L128.128 10.125H127.991L123.338 24ZM123.449 17.1562H132.653V19.696H123.449V17.1562ZM152.808 6.54545V24H149.995L141.771 12.1108H141.626V24H138.464V6.54545H141.293L149.509 18.4432H149.663V6.54545H152.808ZM162.168 24H156.253V6.54545H162.287C164.02 6.54545 165.509 6.89489 166.753 7.59375C168.003 8.28693 168.963 9.28409 169.634 10.5852C170.304 11.8864 170.639 13.4432 170.639 15.2557C170.639 17.0739 170.301 18.6364 169.625 19.9432C168.955 21.25 167.986 22.2528 166.719 22.9517C165.457 23.6506 163.94 24 162.168 24ZM159.415 21.2642H162.014C163.23 21.2642 164.244 21.0426 165.057 20.5994C165.869 20.1506 166.48 19.483 166.889 18.5966C167.298 17.7045 167.503 16.5909 167.503 15.2557C167.503 13.9205 167.298 12.8125 166.889 11.9318C166.48 11.0455 165.875 10.3835 165.074 9.94602C164.278 9.50284 163.29 9.28125 162.108 9.28125H159.415V21.2642Z" fill="#F7F9FC"/>
<path d="M23.1 16.6014C23.2283 16.8581 23.2883 17.1331 23.2883 17.4031C23.2883 18.0714 22.9183 18.7164 22.2833 19.0331L18.235 21.0048H18.1867V21.0281L13.7583 23.1848L9.91667 25.0548C9.91667 25.0548 8.98833 23.7148 11.1267 22.5464C11.1267 22.5464 11.0517 20.5598 11.945 20.1164L13.7583 19.2148L18.1867 17.0148L20.67 15.7814C21.1967 15.5198 21.7917 15.5398 22.2833 15.7831C22.6267 15.9548 22.9183 16.2331 23.1 16.6014ZM23.1967 12.1131C23.1967 11.8431 23.1367 11.5698 23.0083 11.3114C22.8433 10.9781 22.5867 10.7181 22.2833 10.5448C21.775 10.2564 21.1367 10.2148 20.5767 10.4931L18.1867 11.6798L13.7583 13.8798L11.8517 14.8264C10.9583 15.2698 10.59 16.3631 11.035 17.2564C11.4783 18.1498 12.5717 18.5181 13.465 18.0731L13.7467 17.9331L18.1817 15.7298L22.1917 13.7381C22.2233 13.7231 22.255 13.7064 22.285 13.6881C22.8617 13.3631 23.1967 12.7481 23.1967 12.1131ZM18.1867 10.4181L22.0317 8.50811C22.12 8.46477 22.2033 8.41311 22.2817 8.35811C22.7633 8.01311 23.0367 7.45477 23.0367 6.87977C23.0367 6.60977 22.9767 6.33644 22.8483 6.07811C22.7217 5.82144 22.5417 5.60977 22.3267 5.44644C21.7933 5.03977 21.055 4.94477 20.4167 5.25977L18.1733 6.37477L11.6933 9.59311C10.8 10.0364 10.4317 11.1298 10.8767 12.0231C11.32 12.9164 12.4133 13.2848 13.3067 12.8414L13.7583 12.6164L18.1867 10.4181Z" fill="#639BDB"/>
<path d="M13.7583 12.6169L13.3067 12.8419C12.4133 13.2852 11.32 12.9169 10.8767 12.0235C10.4333 11.1302 10.8017 10.0369 11.6933 9.59354L18.175 6.37354L20.4183 5.25854C21.055 4.94187 21.795 5.03854 22.3283 5.44521C22.5417 5.60854 22.7233 5.82021 22.85 6.07687C22.9783 6.33354 23.0383 6.60854 23.0383 6.87854C23.0383 7.45354 22.765 8.01187 22.2833 8.35687C22.205 8.41354 22.1217 8.46354 22.0333 8.50687L18.1883 10.4169L13.7583 12.6169Z" fill="#639BDB" stroke="#F7F9FC" stroke-miterlimit="10" stroke-linecap="round" stroke-linejoin="round"/>
<path d="M13.7467 17.9367L13.465 18.0767C12.5717 18.52 11.4783 18.1517 11.035 17.26C10.5917 16.3667 10.9583 15.2734 11.8517 14.83L13.7583 13.8834L18.1867 11.6834L20.5767 10.4967C21.1367 10.2184 21.775 10.26 22.2833 10.5484C22.5867 10.72 22.8417 10.98 23.0083 11.315C23.1367 11.5717 23.1967 11.8467 23.1967 12.1167C23.1967 12.7517 22.8633 13.3667 22.2833 13.6967C22.2533 13.7134 22.2217 13.73 22.19 13.7467L18.18 15.7384L13.7467 17.9367Z" fill="#639BDB" stroke="#F7F9FC" stroke-miterlimit="10" stroke-linecap="round" stroke-linejoin="round"/>
<path d="M13.7583 23.1852L9.91667 25.0552C9.91667 25.0552 8.98833 23.7152 11.1267 22.5469C11.1267 22.5469 11.0517 20.5602 11.945 20.1169L13.7583 19.2152L18.1867 17.0152L20.67 15.7819C21.1967 15.5202 21.7917 15.5402 22.2833 15.7836C22.6267 15.9536 22.9183 16.2319 23.1017 16.5986C23.23 16.8552 23.29 17.1302 23.29 17.4002C23.29 18.0686 22.92 18.7136 22.285 19.0302L18.2367 21.0019L18.1883 21.0252L13.7583 23.1852Z" fill="#639BDB" stroke="#F7F9FC" stroke-miterlimit="10" stroke-linecap="round" stroke-linejoin="round"/>
<path d="M13.7583 23.1851V28.3351V23.1851Z" fill="#639BDB"/>
<path d="M13.7583 23.1851V28.3351" stroke="#F7F9FC" stroke-miterlimit="10" stroke-linecap="round" stroke-linejoin="round"/>
<path d="M13.7583 12.6167V13.8817V12.6167Z" fill="#639BDB"/>
<path d="M13.7583 12.6167V13.8817" stroke="#F7F9FC" stroke-miterlimit="10" stroke-linecap="round" stroke-linejoin="round"/>
<path d="M13.7583 17.9619V19.2169V17.9619Z" fill="#639BDB"/>
<path d="M13.7583 17.9619V19.2169" stroke="#F7F9FC" stroke-miterlimit="10" stroke-linecap="round" stroke-linejoin="round"/>
<path d="M22.2833 19.0317V28.3834V19.0317Z" fill="#639BDB"/>
<path d="M22.2833 19.0317V28.3834" stroke="#F7F9FC" stroke-miterlimit="10" stroke-linecap="round" stroke-linejoin="round"/>
<path d="M12.2233 26.6704C12.2233 27.6171 11.3183 28.3854 10.2033 28.3854C9.09 28.3854 8.18667 27.6204 8.18333 26.6754V26.6704" fill="#639BDB"/>
<path d="M12.2233 26.6704C12.2233 27.6171 11.3183 28.3854 10.2033 28.3854C9.09 28.3854 8.18667 27.6204 8.18333 26.6754V26.6704" stroke="#F7F9FC" stroke-miterlimit="10" stroke-linecap="round" stroke-linejoin="round"/>
<path d="M8.18333 26.6704V26.6754C8.18 27.6204 7.27667 28.3854 6.16333 28.3854C5.04833 28.3854 4.14333 27.6171 4.14333 26.6704" fill="#639BDB"/>
<path d="M8.18333 26.6704V26.6754C8.18 27.6204 7.27667 28.3854 6.16333 28.3854C5.04833 28.3854 4.14333 27.6171 4.14333 26.6704" stroke="#F7F9FC" stroke-miterlimit="10" stroke-linecap="round" stroke-linejoin="round"/>
<path d="M16.2633 26.6704C16.2633 27.6171 15.3583 28.3854 14.2433 28.3854C14.0767 28.3854 13.9133 28.3687 13.7583 28.3354C12.8767 28.1504 12.2233 27.4754 12.2233 26.6704" fill="#639BDB"/>
<path d="M16.2633 26.6704C16.2633 27.6171 15.3583 28.3854 14.2433 28.3854C14.0767 28.3854 13.9133 28.3687 13.7583 28.3354C12.8767 28.1504 12.2233 27.4754 12.2233 26.6704" stroke="#F7F9FC" stroke-miterlimit="10" stroke-linecap="round" stroke-linejoin="round"/>
<path d="M20.3033 26.6704C20.3033 27.6171 19.3983 28.3854 18.2833 28.3854C17.1683 28.3854 16.2633 27.6171 16.2633 26.6704" fill="#639BDB"/>
<path d="M20.3033 26.6704C20.3033 27.6171 19.3983 28.3854 18.2833 28.3854C17.1683 28.3854 16.2633 27.6171 16.2633 26.6704" stroke="#F7F9FC" stroke-miterlimit="10" stroke-linecap="round" stroke-linejoin="round"/>
<path d="M24.3433 26.6704C24.3433 27.6171 23.4383 28.3854 22.3233 28.3854H22.2833C21.1867 28.3671 20.3033 27.6071 20.3033 26.6704" fill="#639BDB"/>
<path d="M24.3433 26.6704C24.3433 27.6171 23.4383 28.3854 22.3233 28.3854H22.2833C21.1867 28.3671 20.3033 27.6071 20.3033 26.6704" stroke="#F7F9FC" stroke-miterlimit="10" stroke-linecap="round" stroke-linejoin="round"/>
<path d="M28.385 26.6704C28.385 27.6171 27.48 28.3854 26.365 28.3854C25.25 28.3854 24.345 27.6171 24.345 26.6704" fill="#639BDB"/>
<path d="M28.385 26.6704C28.385 27.6171 27.48 28.3854 26.365 28.3854C25.25 28.3854 24.345 27.6171 24.345 26.6704" stroke="#F7F9FC" stroke-miterlimit="10" stroke-linecap="round" stroke-linejoin="round"/>
<path d="M22.2833 13.6934V15.7867V13.6934Z" fill="#639BDB"/>
<path d="M22.2833 13.6934V15.7867" stroke="#F7F9FC" stroke-miterlimit="10" stroke-linecap="round" stroke-linejoin="round"/>
<path d="M22.2833 8.36035V10.547V8.36035Z" fill="#639BDB"/>
<path d="M22.2833 8.36035V10.547" stroke="#F7F9FC" stroke-miterlimit="10" stroke-linecap="round" stroke-linejoin="round"/>
<path d="M18.175 6.37523V3.61523V6.37523Z" fill="#639BDB"/>
<path d="M18.175 6.37523V3.61523" stroke="#F7F9FC" stroke-miterlimit="10" stroke-linecap="round" stroke-linejoin="round"/>
<path d="M22.3283 5.4469V3.61523V5.4469Z" fill="#639BDB"/>
<path d="M22.3283 5.4469V3.61523" stroke="#F7F9FC" stroke-miterlimit="10" stroke-linecap="round" stroke-linejoin="round"/>
<path d="M18.1867 10.4185V11.6818V10.4185Z" fill="#639BDB"/>
<path d="M18.1867 10.4185V11.6818" stroke="#F7F9FC" stroke-miterlimit="10" stroke-linecap="round" stroke-linejoin="round"/>
<path d="M18.1867 15.7451V17.0168V15.7451Z" fill="#639BDB"/>
<path d="M18.1867 15.7451V17.0168" stroke="#F7F9FC" stroke-miterlimit="10" stroke-linecap="round" stroke-linejoin="round"/>
<path d="M18.1867 21.0034V27.8784V21.0034Z" fill="#639BDB"/>
<path d="M18.1867 21.0034V27.8784" stroke="#F7F9FC" stroke-miterlimit="10" stroke-linecap="round" stroke-linejoin="round"/>
<path d="M18.1867 22.8101H22.1317H18.1867Z" fill="#639BDB"/>
<path d="M18.1867 22.8101H22.1317" stroke="#F7F9FC" stroke-miterlimit="10" stroke-linecap="round" stroke-linejoin="round"/>
<path d="M18.1867 24.6167H22.1317H18.1867Z" fill="#639BDB"/>
<path d="M18.1867 24.6167H22.1317" stroke="#F7F9FC" stroke-miterlimit="10" stroke-linecap="round" stroke-linejoin="round"/>
<path d="M18.1867 21.0034H22.1317H18.1867Z" fill="#639BDB"/>
<path d="M18.1867 21.0034H22.1317" stroke="#F7F9FC" stroke-miterlimit="10" stroke-linecap="round" stroke-linejoin="round"/>
<path d="M18.1867 4.40869H22.1317H18.1867Z" fill="#639BDB"/>
<path d="M18.1867 4.40869H22.1317" stroke="#F7F9FC" stroke-miterlimit="10" stroke-linecap="round" stroke-linejoin="round"/>
</svg>
