<svg width="110" height="110" viewBox="0 0 110 110" fill="none" xmlns="http://www.w3.org/2000/svg">
<path d="M110 55C110 85.3757 85.3757 110 55 110C24.6243 110 0 85.3757 0 55C0 24.6243 24.6243 0 55 0C85.3757 0 110 24.6243 110 55Z" fill="#639BDB"/>
<path d="M55.8426 71.7848C65.5716 71.7848 73.4759 64.3227 73.8122 54.9998C73.4759 45.677 65.5716 38.2148 55.8426 38.2148C46.1147 38.2148 38.2082 45.677 37.8764 54.9998C38.2071 64.3227 46.1136 71.7848 55.8426 71.7848Z" fill="#F7F9FC"/>
<path d="M55.8437 30.25C42.175 30.25 31.0926 41.3313 31.0926 55C31.0926 68.6676 42.1761 79.75 55.8437 79.75C69.5114 79.75 80.5937 68.6676 80.5937 55C80.5937 41.3313 69.5114 30.25 55.8437 30.25ZM55.8426 73C45.901 73 37.8415 65.2139 37.8415 55.6064C37.8415 55.4016 37.8696 55.2025 37.8764 55C37.8696 54.7975 37.8415 54.5972 37.8415 54.3936C37.8415 44.7861 45.9021 37 55.8426 37C65.7842 37 73.8426 44.7861 73.8426 54.3936C73.8426 54.5972 73.819 54.7975 73.8134 55C73.8201 55.2025 73.8426 55.4016 73.8426 55.6064C73.8415 65.2139 65.7842 73 55.8426 73Z" fill="#F7F9FC"/>
<path d="M22.9161 27.3487C23.1861 26.2901 23.7205 27.3364 23.7205 27.3364C23.7205 27.3364 23.9072 38.2939 25.1222 38.4131C26.3372 38.5324 25.4012 27.1384 26.839 26.9201C28.1755 26.7075 27.4127 38.5942 28.63 38.4739C29.8427 38.3456 30.0475 27.3926 30.0475 27.3926C30.0475 27.3926 30.5875 26.3475 30.8541 27.3982C34.1481 40.347 31.483 45.6401 31.483 45.6401C31.483 45.6401 31.033 46.7527 29.9642 46.7584C29.8641 46.7527 29.9395 77.5114 29.9327 81.6469C29.935 83.6572 23.7452 83.5954 23.7486 81.594C23.7531 77.4585 23.8735 46.7032 23.7767 46.7055C22.7046 46.7055 22.2557 45.594 22.2557 45.594C22.2557 45.594 19.6007 40.3042 22.9161 27.3487ZM81.5725 26.8751C82.9652 26.8717 88.7432 31.0376 88.75 46.5199C88.7567 51.471 86.0556 51.4699 86.0601 54.567C86.0646 57.6585 86.0815 82.2487 86.0815 82.2487C86.0815 82.2487 83.1182 84.2816 80.9155 82.1542L80.875 27.315C80.8772 27.3161 80.8694 26.874 81.5725 26.8751Z" fill="#F7F9FC"/>
</svg>
