<svg width="10" height="13" viewBox="0 0 10 13" fill="none" xmlns="http://www.w3.org/2000/svg">
<path d="M9.86105 10.1464L8.45116 11.7113C8.24304 11.9501 7.96718 12.031 7.69853 12.0314C6.51043 11.9916 5.38742 11.3386 4.46535 10.6681C2.95183 9.43605 1.56312 7.9084 0.691535 6.06231C0.357252 5.28818 -0.0349818 4.30045 0.00249317 3.43638C0.00583483 3.11134 0.0841182 2.79233 0.28871 2.58281L1.69859 1.00606C1.99136 0.727427 2.27448 0.823766 2.46183 1.14833L3.59609 3.55494C3.71548 3.84005 3.64699 4.14553 3.46888 4.34925L2.94944 4.93016C2.91738 4.97931 2.89696 5.03525 2.89644 5.09614C3.09563 5.95884 3.69905 6.75398 4.23212 7.3012C4.76518 7.84842 5.33816 8.58979 6.08193 8.76531C6.17386 8.794 6.28647 8.80408 6.35224 8.73566L6.95649 8.04806C7.16479 7.87142 7.46554 7.78507 7.68792 7.92951H7.69852L9.74443 9.281C10.0448 9.49166 10.0761 9.89875 9.86105 10.1464Z" fill="#F7F9FC"/>
</svg>
