<?xml version="1.0" standalone="no"?>
<!DOCTYPE svg PUBLIC "-//W3C//DTD SVG 20010904//EN"
 "http://www.w3.org/TR/2001/REC-SVG-20010904/DTD/svg10.dtd">
<svg version="1.0" xmlns="http://www.w3.org/2000/svg"
 width="700.000000pt" height="700.000000pt" viewBox="0 0 700.000000 700.000000"
 preserveAspectRatio="xMidYMid meet">
<metadata>
Created by potrace 1.14, written by Peter Selinger 2001-2017
</metadata>
<g transform="translate(0.000000,700.000000) scale(0.100000,-0.100000)"
fill="#000000" stroke="none">
<path d="M3931 6308 c-13 -7 -33 -25 -44 -40 -20 -26 -21 -43 -21 -310 l-1
-283 -710 -355 c-758 -379 -768 -385 -841 -495 -53 -79 -77 -157 -80 -262 -8
-225 118 -412 332 -493 76 -28 193 -36 272 -17 59 14 62 13 62 -5 0 -14 -47
-42 -207 -121 -187 -91 -215 -109 -274 -167 -106 -104 -153 -215 -152 -360 0
-80 5 -110 31 -178 87 -228 328 -363 567 -318 32 6 35 5 35 -16 0 -20 -28 -37
-198 -123 -184 -94 -200 -104 -242 -157 -25 -31 -55 -83 -68 -114 -29 -71 -60
-219 -63 -296 -1 -32 -5 -61 -8 -66 -3 -4 -27 -23 -53 -40 -71 -48 -162 -146
-196 -211 -67 -124 -72 -252 -17 -376 27 -61 52 -84 97 -91 42 -7 -19 -35 682
307 33 16 61 29 63 29 2 0 3 -132 3 -293 l0 -293 -47 2 c-27 1 -51 2 -55 3 -4
1 -14 16 -21 33 -22 51 -51 71 -102 72 -36 0 -51 -6 -75 -29 -16 -16 -30 -36
-30 -46 0 -9 -6 -21 -12 -26 -13 -9 -645 -11 -650 -3 -2 3 -12 23 -23 45 -41
82 -155 81 -192 -2 -10 -21 -19 -40 -20 -42 -2 -3 -149 -5 -328 -5 l-324 -1
-14 36 c-38 97 -169 96 -202 -1 -9 -27 -9 -51 0 -106 57 -333 476 -513 811
-349 40 19 95 56 123 81 l51 46 40 -35 c75 -69 187 -127 272 -142 203 -38 426
25 547 155 l24 26 31 -31 c60 -61 151 -113 249 -142 50 -15 220 -22 277 -11
105 21 204 69 283 139 l48 42 42 -41 c200 -193 575 -197 784 -8 l53 48 52 -46
c55 -48 161 -108 213 -120 17 -3 44 -9 60 -13 40 -9 180 -9 232 -1 100 17 273
107 306 159 16 26 23 24 60 -13 147 -146 402 -194 624 -116 188 67 334 261
329 436 -2 44 -7 58 -33 84 -56 55 -146 35 -176 -40 l-15 -37 -323 1 c-178 1
-326 2 -329 3 -3 1 -6 11 -7 23 -3 32 -53 78 -92 83 -19 2 -47 -3 -63 -11 -29
-15 -71 -71 -63 -85 7 -11 -24 -15 -130 -14 l-100 1 -1 799 -1 800 54 53 c136
134 189 291 156 467 -19 103 -65 189 -142 265 l-66 65 0 165 0 165 28 24 c39
33 104 122 126 174 87 204 38 436 -123 579 l-31 28 -1 182 0 183 43 53 c100
123 138 262 113 412 -13 79 -62 185 -110 239 -16 18 -31 39 -32 45 -1 6 -2 85
-4 176 -1 91 -3 175 -3 187 -2 34 -47 80 -86 87 -74 14 -134 -45 -130 -126 1
-22 -3 -39 -9 -39 -36 -4 -676 -3 -677 1 0 3 -2 25 -4 50 -4 50 -18 81 -44 97
-31 19 -84 24 -110 11z m436 -384 c-1 -1 -65 -33 -142 -72 l-141 -70 2 67 c1
36 2 69 3 72 0 3 64 5 141 5 77 0 139 -1 137 -2z m399 -1003 l0 -69 -81 0
c-110 1 -168 -18 -388 -128 -104 -52 -193 -94 -198 -94 -44 0 40 49 329 192
185 92 337 168 337 168 0 0 1 -31 1 -69z m-898 -396 c-5 -23 -742 -386 -746
-368 -2 8 -2 16 0 17 17 11 735 365 741 365 5 1 7 -6 5 -14z m898 -763 c0 -29
-4 -56 -10 -59 -5 -4 -42 -7 -81 -8 -38 -1 -88 -7 -110 -14 -49 -15 -439 -203
-443 -213 -6 -14 -32 -8 -32 7 0 15 645 346 665 341 5 -1 10 -26 11 -54z
m-898 -417 c-1 -1 -171 -86 -375 -187 -302 -149 -373 -181 -373 -166 0 26 743
395 748 372 2 -9 2 -17 0 -19z m897 -762 l-1 -68 -147 -1 c-81 0 -145 1 -143
3 11 11 282 140 287 137 3 -2 5 -34 4 -71z m0 -376 l0 -87 -337 0 c-380 0
-340 -9 -340 75 0 19 1 50 1 68 l1 33 338 -1 337 0 0 -88z m-895 -511 c0 -410
-3 -525 -12 -528 -11 -3 -121 -3 -169 1 -8 0 -23 18 -32 40 -40 90 -173 86
-202 -7 -5 -18 -14 -32 -20 -33 -55 -4 -308 -2 -311 3 -4 6 -6 263 -5 571 1
73 5 127 11 127 8 0 341 160 625 300 55 27 103 49 108 50 4 0 7 -236 7 -524z
m895 117 c1 -46 -2 -84 -5 -84 -24 -6 -670 -2 -671 3 0 5 -1 24 -1 43 0 19 1
55 1 80 l1 45 338 -2 337 -3 0 -82z m-5 -312 c3 0 5 -75 5 -166 0 -159 0 -165
-20 -166 -60 -4 -172 -4 -182 -1 -7 2 -13 11 -13 19 0 8 -9 28 -20 43 -50 70
-156 56 -190 -24 l-16 -40 -117 0 c-105 -1 -117 1 -118 17 -1 22 -1 123 0 235
l1 88 333 -2 c182 -1 334 -2 337 -3z"/>
</g>
</svg>
