<svg width="57" height="38" viewBox="0 0 57 38" fill="none" xmlns="http://www.w3.org/2000/svg">
<path d="M53.5504 37.546H47.5832C45.4645 37.546 44.373 36.2584 42.5675 34.1243C41.8391 33.2677 40.947 32.2121 39.7583 30.95C37.3761 28.5151 35.6014 27.2199 34.6452 27.2199C34.5076 27.2199 34.4103 27.225 34.3439 27.2301C34.23 27.7732 34.2419 29.2647 34.2585 30.9628C34.2656 31.7761 34.2727 32.7169 34.2727 33.8082C34.2727 36.9085 32.0923 37.546 28.8204 37.546C21.7998 37.546 14.6344 33.0101 9.64951 25.4122C2.43195 14.6757 0 5.97121 0 3.65104C0 1.69801 1.17683 0.578721 3.23153 0.578721H9.20108C11.6947 0.578721 12.4753 2.28443 13.0115 3.88051C15.9299 12.9292 20.2125 19.1274 21.6242 19.8999C21.6527 19.6959 21.6788 19.3619 21.6788 18.8239V9.48716C21.5673 7.31232 20.8887 6.41995 20.2908 5.62956C19.8305 5.02529 19.3109 4.34199 19.3109 3.30429C19.3109 1.99122 20.3477 0.576172 22.0181 0.576172H31.3995C32.7092 0.576172 34.268 1.20338 34.268 4.18391V16.7358C34.268 16.9143 34.2775 17.0545 34.2917 17.1616C34.5788 17.0061 35.115 16.6287 35.9881 15.7006C40.0548 10.8742 43.0301 3.23545 43.0586 3.15896C43.7301 1.466 45.0042 0.576172 46.7504 0.576172H52.7176C53.949 0.576172 54.8411 0.963718 55.3678 1.72606C55.7166 2.22834 56.0512 3.12581 55.6573 4.54851C55.6549 4.55616 55.6526 4.56381 55.6502 4.57401C54.8055 8.30158 48.7079 17.7021 47.4717 19.4461L47.4765 19.4486C47.3697 19.6296 47.0897 20.109 47.0873 20.2364C47.0873 20.2364 47.1016 20.3894 47.4053 20.8025C47.41 20.8101 47.4171 20.8203 47.4243 20.828C47.5524 20.9937 47.9201 21.3863 48.4303 21.9396C54.2432 28.2194 57.8923 32.977 56.8104 35.7714C56.4925 36.5822 55.6739 37.546 53.5504 37.546ZM34.6476 24.6703C35.841 24.6703 37.5754 25.2006 41.4144 29.1194C42.6553 30.4376 43.5758 31.5237 44.3256 32.4084C46.0624 34.4583 46.5582 34.9963 47.588 34.9963H53.5551C54.2835 34.9963 54.5778 34.8408 54.6228 34.7847C54.7913 34.3818 54.7391 32.3727 46.7481 23.7371C46.124 23.0614 45.6899 22.5745 45.538 22.3756C44.2165 20.5679 44.7242 19.367 45.4668 18.0947C45.5238 17.9928 45.5973 17.9035 45.678 17.8245C46.6199 16.3992 52.7437 6.94772 53.3582 3.91365C53.3701 3.85501 53.3867 3.79637 53.4057 3.74028C53.4887 3.41137 53.4626 3.26094 53.4579 3.2329H53.4555C53.4341 3.2329 53.2443 3.12581 52.7176 3.12581H46.7504C45.837 3.12581 45.4906 3.53375 45.2462 4.14567C45.1228 4.46437 42.0835 12.2612 37.6988 17.4624C36.3867 18.8596 34.7401 20.3231 33.2572 19.6526C32.6356 19.3747 31.8953 18.6429 31.8953 16.7332V4.18391C31.8953 3.38587 31.7672 3.18445 31.7577 3.17171C31.753 3.17171 31.6581 3.12581 31.3995 3.12581H22.0157C21.7571 3.12581 21.6859 3.27114 21.6812 3.30939C21.6812 3.43177 21.8971 3.71733 22.1272 4.01819C22.8295 4.94371 23.8924 6.34346 24.0514 9.41577L24.0538 18.8214C24.0538 20.0223 24.0538 22.5184 21.7642 22.5184C18.3856 22.5184 13.1207 12.0011 10.7741 4.73209C10.2593 3.2023 9.98643 3.12836 9.20108 3.12836H3.23153C2.37264 3.12836 2.37264 3.27114 2.37264 3.65104C2.37264 4.67344 4.07144 12.7609 11.5808 23.9309C16.1292 30.8659 22.5733 34.9963 28.8228 34.9963C31.9025 34.9963 31.9025 34.4991 31.9025 33.8082C31.9025 32.7271 31.8953 31.7914 31.8882 30.9857C31.8574 27.5284 31.8455 26.2332 32.6498 25.3612C33.2122 24.7544 33.9429 24.6703 34.6476 24.6703Z" fill="white"/>
</svg>
