<svg width="51" height="38" viewBox="0 0 51 38" fill="none" xmlns="http://www.w3.org/2000/svg">
<path d="M33.3498 16.8773L22.0828 10.977C21.4349 10.6378 20.6692 10.6505 20.0342 11.0106C19.3988 11.371 19.0198 12.0078 19.0198 12.7146V24.4138C19.0198 25.1172 19.3964 25.7529 20.0276 26.1137C20.3571 26.3022 20.7225 26.3968 21.0886 26.3968C21.424 26.3968 21.7602 26.3174 22.0695 26.1581L33.337 20.3595C34.0058 20.015 34.4233 19.3496 34.4264 18.6223C34.4291 17.895 34.0167 17.2266 33.3498 16.8773ZM22.0084 22.9421V14.1983L30.4292 18.6081L22.0084 22.9421Z" fill="white"/>
<path d="M50.6245 9.30173L50.6222 9.27939C50.579 8.88651 50.149 5.39197 48.374 3.61453C46.3223 1.52391 43.9963 1.26994 42.8776 1.14817C42.785 1.13811 42.7002 1.1288 42.6243 1.11912L42.5352 1.11018C35.793 0.640968 25.6107 0.576917 25.5088 0.576544L25.4998 0.576172L25.4909 0.576544C25.3889 0.576917 15.2067 0.640968 8.4037 1.11018L8.31382 1.11912C8.24145 1.12843 8.16168 1.137 8.07491 1.14668C6.9691 1.26882 4.66799 1.52317 2.61045 3.68938C0.919823 5.44783 0.431119 8.86752 0.380925 9.25183L0.375089 9.30173C0.359914 9.46521 0 13.3571 0 17.2643V20.9167C0 24.8239 0.359914 28.7157 0.375089 28.8796L0.377812 28.9042C0.421002 29.2907 0.850564 32.7212 2.61745 34.4994C4.54659 36.52 6.98583 36.7874 8.29786 36.9311C8.50525 36.9538 8.68385 36.9732 8.80564 36.9937L8.92353 37.0093C12.8164 37.3638 25.022 37.5385 25.5395 37.5456L25.5551 37.546L25.5706 37.5456C25.6726 37.5452 35.8544 37.4812 42.5967 37.0119L42.6858 37.003C42.771 36.9922 42.8667 36.9825 42.9718 36.9721C44.0714 36.8604 46.36 36.6284 48.3892 34.4916C50.0798 32.7328 50.5689 29.3131 50.6187 28.9291L50.6245 28.8792C50.6397 28.7154 51 24.8239 51 20.9167V17.2643C50.9996 13.3571 50.6397 9.46559 50.6245 9.30173ZM48.011 20.9167C48.011 24.533 47.681 28.2573 47.6499 28.5992C47.523 29.541 47.0075 31.7046 46.1838 32.5615C44.9138 33.8987 43.6091 34.0313 42.6566 34.1277C42.5414 34.1393 42.4348 34.1505 42.3383 34.162C35.8171 34.6133 26.0192 34.6826 25.5679 34.6852C25.0617 34.6781 13.0347 34.502 9.26049 34.1665C9.06711 34.1363 8.85816 34.1132 8.63793 34.0894C7.52084 33.9669 5.99169 33.7993 4.81584 32.5615L4.78822 32.5332C3.9789 31.7262 3.47813 29.703 3.3509 28.6104C3.32716 28.3519 2.98865 24.5837 2.98865 20.9167V17.2643C2.98865 13.652 3.31782 9.93182 3.34973 9.58289C3.50109 8.47353 4.02637 6.441 4.81584 5.6195C6.12476 4.24165 7.50489 4.08896 8.41771 3.98804C8.50486 3.97836 8.58618 3.96943 8.66128 3.96012C15.2775 3.50654 25.1457 3.43914 25.4998 3.43653C25.8539 3.43876 35.7186 3.50654 42.2761 3.96012C42.3566 3.9698 42.4446 3.97948 42.5391 3.98991C43.478 4.09232 44.897 4.24723 46.1993 5.57668L46.2114 5.58897C47.0207 6.39594 47.5215 8.45454 47.6487 9.56911C47.6713 9.81303 48.011 13.5895 48.011 17.2643V20.9167Z" fill="white"/>
</svg>
